<svg xmlns="http://www.w3.org/2000/svg" xmlns:xlink="http://www.w3.org/1999/xlink" width="434" height="434" viewBox="0 0 434 434">
  <defs>
    <ellipse id="ellipse-1" cx="217" cy="215" rx="207" ry="207"/>
    <filter id="filter-2" width="200%" height="200%" x="-50%" y="-50%" color-interpolation-filters="sRGB" filterUnits="userSpaceOnUse">
      <feOffset dx="0" dy="2" in="SourceAlpha" result="shadow-1-feOffset-shadow"/>
      <feGaussianBlur in="shadow-1-feOffset-shadow" result="shadow-1-feGaussianBlur-shadow" stdDeviation="6.024"/>
      <feColorMatrix in="shadow-1-feGaussianBlur-shadow" result="shadow-1-feColorMatrix-shadow" type="matrix" values="0 0 0 0 0.9137254901960784  0 0 0 0 0.2901960784313726  0 0 0 0 0.4470588235294118  0 0 0 1 0"/>
    </filter>
    <linearGradient id="linearGradient-3" x1="217" x2="217" y1="8" y2="422" gradientUnits="userSpaceOnUse">
      <stop offset="0" stop-color="rgb(227,227,227)"/>
      <stop offset="1" stop-color="rgb(255,255,255)"/>
    </linearGradient>
    <linearGradient id="linearGradient-4" x1="217" x2="217" y1="8" y2="422" gradientUnits="userSpaceOnUse">
      <stop offset="0" stop-color="rgb(233,122,150)"/>
      <stop offset="1" stop-color="rgb(247,6,66)"/>
    </linearGradient>
    <mask id="mask-5" x="0" y="0" maskContentUnits="userSpaceOnUse" maskUnits="userSpaceOnUse">
      <rect width="434" height="434" x="0" y="0" fill="black"/>
      <use fill="white" xlink:href="#ellipse-1"/>
    </mask>
    <rect id="rect-6" width="247.325" height="247.325" x="93.338" y="91.338"/>
    <path id="path-7" fill-rule="evenodd" d="M217.00003742 338.66236042c-68.28314209 0-123.66235352-55.37924195-123.66235352-123.662323 0-68.28314209 55.37921143-123.66235352 123.66235352-123.66235352 68.28308105 0 123.662323 55.37921143 123.662323 123.66235352 0 68.28308105-55.37924195 123.662323-123.662323 123.662323zM107.31690143 199.4078133c6.98960877-3.76364136 13.97921753-3.76364136 20.69999695.53765869 6.98960877 4.30130005 13.97923279 8.6026001 21.23765564 12.90390015 7.25845337 4.0324707 10.48442078 10.48440551 10.48442078 18.54934692-.26882935 8.33377075-.26882935 16.6675415-.26882935 24.73248291 0 8.33374023-3.49479675 14.24804688-10.75325012 18.28051758-5.64544678 2.95715332-11.0220642 6.18310547-16.66752625 9.14025879 5.64546204 6.45196533 11.82856751 12.36621094 18.81817627 17.2052002 2.41947937-3.22598267 5.91429139-5.37664796 10.21559143-6.72079468 8.06494141-2.41946412 15.86105347-4.83895875 23.65713501-7.5272522 7.79611207-2.68832398 14.78570557-1.07531738 20.70001221 4.5701294 5.91427612 5.64544677 12.09741211 11.29089355 18.28051758 16.66751098 4.0324707 3.49481201 6.18310547 7.52728271 6.9895935 12.0974121 10.75326539-1.61300658 20.70001221-4.83895873 30.10910035-9.40908813-1.34417725-2.15063476-2.68829346-4.30130005-4.0324707-6.18310547-4.5701294-6.98962402-4.83895875-13.97924804-.80648804-21.2376709 4.0324707-7.25845336 7.79611206-14.51690673 11.5597229-21.77532958 3.76367187-7.25842286 9.67791748-11.02209473 18.01171875-11.02209473 8.33374023 0 16.66751098-.26879883 24.73245239-.80645752 1.6130066 0 2.9571228 0 4.5701294.26879883 2.9571228-8.6026001 5.10778808-17.74285889 5.64547729-27.42077637-1.34417725-1.34414673-2.41949463-2.95715332-3.49481201-4.5701294-4.30133057-6.9895935-8.6026001-13.97921752-13.1727295-20.96881103-4.57012939-6.98962402-4.83898925-13.97924805-.80651855-21.2376709 1.88183594-3.494812 4.0324707-7.25845337 5.91430664-10.75323486-4.83898926-9.40911865-11.02209472-18.01171875-18.28051758-25.53897095-4.0324707 3.76364136-8.87145996 5.37661743-14.78570556 4.83895874-8.33380127-.53765869-16.6675415-.80648803-24.73248291-1.07531738-8.33377075-.26882935-14.24804688-4.0324707-18.01168824-11.29092407-3.76364135-7.25842285-7.52728271-14.78570557-11.55975341-22.04414368-.5376587-1.07533264-1.07531739-2.15065002-1.34414673-3.22598267-2.15063477 0-4.30130005-.26882934-6.45196533-.26882934-8.0649109 0-15.86102295.80648804-23.38830567 2.68830872.5376587 2.15065002.5376587 4.57012939.26885987 7.2584381-1.0753479 8.33378602-1.6130066 16.3986969-2.41949463 24.73246766-.5376587 8.33377075-4.83895874 13.97921753-12.36624146 17.47402954-7.52726745 3.22598266-15.05453491 6.72076416-22.58181763 10.48440552-7.52726745 3.494812-14.51687622 2.95715332-21.23765564-1.88180542-3.494812-2.68832398-7.2584381-5.37661744-10.75325012-7.79611207-6.98960876 12.09741211-11.8285675 25.53897095-13.97921753 40.32467652zm99.19869995-30.37792969c-8.0649414 1.34417725-13.44155883 5.91430664-16.1298828 13.71038818l-8.0649109 23.38833619c-2.68832397 7.5272522-1.61300659 14.51687622 4.03244019 20.69998169 5.37664795 6.18310546 10.75326538 12.36624145 16.12988281 18.81817627 5.37661743 6.18313598 12.09741211 8.6026001 20.16235352 6.98962402 8.06491089-1.61297608 16.39868164-3.22598267 24.46362304-4.5701294 8.06494141-1.34417724 13.71038819-5.91430664 16.12988282-13.71038818 2.4194641-7.79611206 5.10778808-15.59222412 8.06491089-23.38830566 2.68832397-7.52728272 1.61300659-14.51690674-4.0324402-20.70001221-5.37664794-6.18310547-10.75326537-12.36624146-16.1298828-18.81817627-5.37661743-6.18310547-12.09741211-8.6026001-20.16235352-6.98962402-8.06491089 1.61300659-16.39868164 3.22598266-24.46362305 4.5701294z"/>
    <filter id="filter-8" width="200%" height="200%" x="-50%" y="-50%" color-interpolation-filters="sRGB" filterUnits="userSpaceOnUse">
      <feOffset dx="0" dy="2" in="SourceAlpha" result="shadow-1-feOffset-shadow"/>
      <feGaussianBlur in="shadow-1-feOffset-shadow" result="shadow-1-feGaussianBlur-shadow" stdDeviation="1.807"/>
      <feColorMatrix in="shadow-1-feGaussianBlur-shadow" result="shadow-1-feColorMatrix-shadow" type="matrix" values="0 0 0 0 0  0 0 0 0 0  0 0 0 0 0  0 0 0 0.5 0"/>
    </filter>
  </defs>
  <g>
    <g>
      <use fill="black" stroke="black" stroke-width="3" filter="url(#filter-2)" xlink:href="#ellipse-1"/>
      <use fill="url(#linearGradient-3)" xlink:href="#ellipse-1"/>
      <use fill-opacity="0" stroke="url(#linearGradient-4)" stroke-linecap="butt" stroke-linejoin="miter" stroke-width="6" mask="url(#mask-5)" xlink:href="#ellipse-1"/>
    </g>
    <g>
      <use fill="black" stroke="black" stroke-opacity="0" stroke-width="0" filter="url(#filter-8)" xlink:href="#path-7"/>
      <use fill="rgb(21,21,21)" xlink:href="#path-7"/>
    </g>
  </g>
</svg>
