<svg height='300px' width='300px'  fill="#1A1A1A" xmlns="http://www.w3.org/2000/svg" viewBox="0 0 64 64" x="0px" y="0px"><g><path d="M16.541,14.845l2.332,4.665L19,19.434V13.3a12.569,12.569,0,0,0-2.04,1.234Z"></path><path d="M35,32.273V12.523a12.731,12.731,0,0,0-2-.416V34.089A12.06,12.06,0,0,1,35,32.273Z"></path><polygon points="40.588 21.587 42.732 17.299 41.086 16.064 38.847 20.542 40.588 21.587"></polygon><path d="M21,20V35h2V12.107a12.731,12.731,0,0,0-2,.416Z"></path><path d="M39.459,14.845l-.419-.315A12.569,12.569,0,0,0,37,13.3v6.138l.127.076Z"></path><polygon points="13.268 17.299 15.412 21.587 17.153 20.542 14.914 16.064 13.268 17.299"></polygon><path d="M25,35h2V15.036a4,4,0,0,1-2-1.225Z"></path><path d="M43,40V37H41v3a1,1,0,0,1-1,1H37v2h3a1,1,0,0,1,1,1v3h2V44a1,1,0,0,1,1-1h3V41H44A1,1,0,0,1,43,40Z"></path><path d="M42,32A10,10,0,1,0,52,42,10.011,10.011,0,0,0,42,32Zm7,12a1,1,0,0,1-1,1H45v3a1,1,0,0,1-1,1H40a1,1,0,0,1-1-1V45H36a1,1,0,0,1-1-1V40a1,1,0,0,1,1-1h3V36a1,1,0,0,1,1-1h4a1,1,0,0,1,1,1v3h3a1,1,0,0,1,1,1Z"></path><path d="M29.919,12H26.081l.322.4a2.107,2.107,0,0,0,3.194,0Z"></path><path d="M29,35h2V13.811a4,4,0,0,1-2,1.225Z"></path></g></svg>