<svg height='300px' width='300px'  fill="#000000" xmlns="http://www.w3.org/2000/svg" xmlns:xlink="http://www.w3.org/1999/xlink" viewBox="0 0 100 100" version="1.1" xml:space="preserve" x="0px" y="0px"><path d="M 95 50 C 95 25.2869 74.3443 5 50 5 C 25.2869 5 5 25.2869 5 50 C 5 74.3443 25.2869 95 50 95 C 74.3443 95 95 74.3443 95 50 ZM 50 24.7705 L 65.2705 18.6841 L 60.8295 11.1893 C 69.9072 13.5988 77.55 18.9957 82.7615 26.2975 L 76.3466 25.0234 L 74.2602 39.5689 L 84.5453 53.7097 L 90.0721 46.6213 C 90.1596 47.7353 90.2049 48.8597 90.2049 50 C 90.2049 59.3742 87.2715 67.566 82.4221 74.0639 L 80.9033 64.9207 L 65.3863 69.6111 L 57.6552 83.6831 L 66.1115 86.8336 C 61.0009 89.0237 55.3948 90.2049 49.6311 90.2049 C 44.4989 90.2049 38.9714 89.1688 33.682 86.8926 L 42.2783 83.6831 L 34.5472 69.6111 L 19.0301 64.9207 L 17.5115 74.0566 C 15.1703 70.8743 13.1674 67.1724 11.6393 62.9098 C 10.9016 60.3279 9.7951 55.1639 9.7951 54.4262 L 9.7951 46.282 L 15.5851 53.7097 L 25.8702 39.5689 L 23.7838 25.0234 L 17.2754 26.3197 C 22.7932 18.4916 30.6107 13.4647 39.1631 11.1967 L 34.7295 18.6841 L 50 24.7705 ZM 49.7541 30.8026 L 33.0199 42.9608 L 39.4118 62.633 L 60.0964 62.633 L 66.4883 42.9608 L 49.7541 30.8026 Z" fill="#000000"></path></svg>