<svg height='300px' width='300px'  fill="#1A1A1A" xmlns="http://www.w3.org/2000/svg" viewBox="0 0 64 64" x="0px" y="0px"><g data-name="line expand"><path d="M36,45h3v3a1,1,0,0,0,1,1h4a1,1,0,0,0,1-1V45h3a1,1,0,0,0,1-1V40a1,1,0,0,0-1-1H45V36a1,1,0,0,0-1-1H40a1,1,0,0,0-1,1v3H36a1,1,0,0,0-1,1v4A1,1,0,0,0,36,45Zm1-4h3a1,1,0,0,0,1-1V37h2v3a1,1,0,0,0,1,1h3v2H44a1,1,0,0,0-1,1v3H41V44a1,1,0,0,0-1-1H37Z"></path><path d="M42,54a12,12,0,1,0-5-22.895V21.767l3.485,2.09a1,1,0,0,0,1.41-.41l3-6a1,1,0,0,0-.3-1.247l-4.36-3.269a14.735,14.735,0,0,0-8.018-2.9A.967.967,0,0,0,32,10H24a.967.967,0,0,0-.222.032,14.735,14.735,0,0,0-8.018,2.9L11.4,16.2a1,1,0,0,0-.295,1.247l3,6a1,1,0,0,0,1.41.41L19,21.767V36a1,1,0,0,0,1,1H31.105A11.976,11.976,0,0,0,42,54Zm-.914-37.936L42.732,17.3l-2.144,4.288-1.741-1.045ZM37,13.3a12.569,12.569,0,0,1,2.04,1.234l.419.315L37.127,19.51,37,19.434Zm-4-1.189a12.731,12.731,0,0,1,2,.416v19.75a12.06,12.06,0,0,0-2,1.816ZM42,32A10,10,0,1,1,32,42,10.011,10.011,0,0,1,42,32ZM15.412,21.587,13.268,17.3l1.646-1.235,2.239,4.478ZM19,19.434l-.127.076-2.332-4.665.419-.315A12.569,12.569,0,0,1,19,13.3ZM23,35H21V12.523a12.731,12.731,0,0,1,2-.416Zm4,0H25V13.811a4,4,0,0,0,2,1.225Zm-.6-22.6-.322-.4h3.838l-.322.4A2.107,2.107,0,0,1,26.4,12.4ZM31,35H29V15.036a4,4,0,0,0,2-1.225Z"></path></g></svg>