<svg xmlns="http://www.w3.org/2000/svg" width="304" height="66" viewBox="0 0 304 66"><path fill="#ffffff" d="M29.33 51.61L35.06 51.61L35.06 65.24L26.88 65.24Q18.14 65.24 13.25 60.96Q8.37 56.68 8.37 47L8.37 47L8.37 26.13L1.97 26.13L1.97 12.78L8.37 12.78L8.37 0L24.44 0L24.44 12.78L34.97 12.78L34.97 26.13L24.44 26.13L24.44 47.19Q24.44 49.54 25.57 50.57Q26.70 51.61 29.33 51.61L29.33 51.61ZM93.44 38.16Q93.44 40.42 93.15 42.86L93.15 42.86L56.78 42.86Q57.15 47.75 59.92 50.34Q62.70 52.92 66.74 52.92L66.74 52.92Q72.76 52.92 75.11 47.85L75.11 47.85L92.21 47.85Q90.90 53.02 87.47 57.15Q84.04 61.29 78.87 63.64Q73.70 65.99 67.30 65.99L67.30 65.99Q59.60 65.99 53.58 62.70Q47.56 59.41 44.18 53.30Q40.80 47.19 40.80 39.01L40.80 39.01Q40.80 30.83 44.13 24.72Q47.47 18.61 53.49 15.32Q59.50 12.03 67.30 12.03L67.30 12.03Q74.92 12.03 80.84 15.23Q86.76 18.42 90.10 24.35Q93.44 30.27 93.44 38.16L93.44 38.16ZM56.87 33.93L76.99 33.93Q76.99 29.80 74.17 27.35Q71.35 24.91 67.12 24.91L67.12 24.91Q63.07 24.91 60.30 27.26Q57.53 29.61 56.87 33.93L56.87 33.93ZM98.70 38.92Q98.70 30.83 101.76 24.72Q104.81 18.61 110.07 15.32Q115.34 12.03 121.82 12.03L121.82 12.03Q127.37 12.03 131.55 14.29Q135.74 16.54 137.99 20.21L137.99 20.21L137.99 12.78L154.07 12.78L154.07 65.24L137.99 65.24L137.99 57.81Q135.64 61.48 131.46 63.73Q127.28 65.99 121.73 65.99L121.73 65.99Q115.34 65.99 110.07 62.65Q104.81 59.31 101.76 53.16Q98.70 47 98.70 38.92L98.70 38.92ZM137.99 39.01Q137.99 32.99 134.66 29.52Q131.32 26.04 126.52 26.04L126.52 26.04Q121.73 26.04 118.39 29.47Q115.06 32.90 115.06 38.92L115.06 38.92Q115.06 44.93 118.39 48.46Q121.73 51.98 126.52 51.98L126.52 51.98Q131.32 51.98 134.66 48.50Q137.99 45.03 137.99 39.01L137.99 39.01ZM232.65 12.22Q242.43 12.22 248.21 18.14Q253.99 24.06 253.99 34.59L253.99 34.59L253.99 65.24L238.01 65.24L238.01 36.75Q238.01 31.68 235.33 28.91Q232.65 26.13 227.95 26.13L227.95 26.13Q223.25 26.13 220.57 28.91Q217.89 31.68 217.89 36.75L217.89 36.75L217.89 65.24L201.91 65.24L201.91 36.75Q201.91 31.68 199.23 28.91Q196.55 26.13 191.85 26.13L191.85 26.13Q187.15 26.13 184.47 28.91Q181.80 31.68 181.80 36.75L181.80 36.75L181.80 65.24L165.72 65.24L165.72 12.78L181.80 12.78L181.80 19.36Q184.24 16.07 188.19 14.15Q192.14 12.22 197.12 12.22L197.12 12.22Q203.04 12.22 207.69 14.76Q212.35 17.30 214.98 22.00L214.98 22.00Q217.70 17.67 222.40 14.95Q227.10 12.22 232.65 12.22L232.65 12.22ZM302.59 25.57L280.31 51.98L303.06 51.98L303.06 65.24L262.35 65.24L262.35 52.45L284.16 26.04L262.54 26.04L262.54 12.78L302.59 12.78L302.59 25.57Z"></path></svg>