<svg xmlns="http://www.w3.org/2000/svg" width="210" height="46" viewBox="0 0 210 46"><path fill="#ffffff" d="M20.28 35.69L24.25 35.69L24.25 45.11L18.59 45.11Q12.54 45.11 9.17 42.15Q5.79 39.20 5.79 32.50L5.79 32.50L5.79 18.07L1.36 18.07L1.36 8.84L5.79 8.84L5.79 0L16.90 0L16.90 8.84L24.18 8.84L24.18 18.07L16.90 18.07L16.90 32.63Q16.90 34.25 17.68 34.97Q18.46 35.69 20.28 35.69L20.28 35.69ZM64.61 26.39Q64.61 27.95 64.41 29.64L64.41 29.64L39.26 29.64Q39.52 33.02 41.44 34.81Q43.36 36.59 46.15 36.59L46.15 36.59Q50.31 36.59 51.94 33.09L51.94 33.09L63.77 33.09Q62.86 36.66 60.48 39.52Q58.11 42.38 54.53 44.01Q50.96 45.63 46.54 45.63L46.54 45.63Q41.21 45.63 37.05 43.35Q32.89 41.08 30.55 36.85Q28.21 32.63 28.21 26.97L28.21 26.97Q28.21 21.32 30.52 17.09Q32.83 12.87 36.98 10.59Q41.15 8.32 46.54 8.32L46.54 8.32Q51.80 8.32 55.90 10.53Q60.00 12.74 62.30 16.83Q64.61 20.93 64.61 26.39L64.61 26.39ZM39.33 23.46L53.23 23.46Q53.23 20.60 51.28 18.91Q49.34 17.22 46.41 17.22L46.41 17.22Q43.62 17.22 41.70 18.85Q39.78 20.47 39.33 23.46L39.33 23.46ZM68.25 26.91Q68.25 21.32 70.36 17.09Q72.48 12.87 76.12 10.59Q79.76 8.32 84.24 8.32L84.24 8.32Q88.08 8.32 90.97 9.88Q93.86 11.44 95.42 13.97L95.42 13.97L95.42 8.84L106.54 8.84L106.54 45.11L95.42 45.11L95.42 39.98Q93.80 42.51 90.90 44.07Q88.01 45.63 84.18 45.63L84.18 45.63Q79.76 45.63 76.12 43.32Q72.48 41.02 70.36 36.76Q68.25 32.50 68.25 26.91L68.25 26.91ZM95.42 26.97Q95.42 22.81 93.11 20.41Q90.81 18.00 87.49 18.00L87.49 18.00Q84.18 18.00 81.87 20.38Q79.56 22.75 79.56 26.91L79.56 26.91Q79.56 31.07 81.87 33.51Q84.18 35.95 87.49 35.95L87.49 35.95Q90.81 35.95 93.11 33.54Q95.42 31.13 95.42 26.97L95.42 26.97ZM160.88 8.45Q167.63 8.45 171.63 12.55Q175.63 16.64 175.63 23.92L175.63 23.92L175.63 45.11L164.58 45.11L164.58 25.41Q164.58 21.90 162.73 19.99Q160.88 18.07 157.63 18.07L157.63 18.07Q154.38 18.07 152.52 19.99Q150.67 21.90 150.67 25.41L150.67 25.41L150.67 45.11L139.62 45.11L139.62 25.41Q139.62 21.90 137.77 19.99Q135.91 18.07 132.66 18.07L132.66 18.07Q129.41 18.07 127.56 19.99Q125.71 21.90 125.71 25.41L125.71 25.41L125.71 45.11L114.59 45.11L114.59 8.84L125.71 8.84L125.71 13.39Q127.40 11.11 130.13 9.78Q132.86 8.45 136.31 8.45L136.31 8.45Q140.40 8.45 143.62 10.20Q146.84 11.96 148.66 15.21L148.66 15.21Q150.54 12.22 153.79 10.34Q157.04 8.45 160.88 8.45L160.88 8.45ZM209.24 17.68L193.83 35.95L209.56 35.95L209.56 45.11L181.41 45.11L181.41 36.27L196.50 18.00L181.55 18.00L181.55 8.84L209.24 8.84L209.24 17.68Z"></path></svg>