<svg height='300px' width='300px'  fill="#E6DA00" xmlns="http://www.w3.org/2000/svg" xmlns:xlink="http://www.w3.org/1999/xlink" version="1.1" x="0px" y="0px" viewBox="0 0 33 33" enable-background="new 0 0 33 33" xml:space="preserve"><path d="M10.13,27.17l-0.242,0.68c0.23,0.084,0.559,0.15,0.937,0.15c0.787,0,1.787-0.287,2.552-1.293l-0.575-0.436  C11.713,27.699,10.195,27.191,10.13,27.17z"></path><path d="M21.517,18.896L26.711,7.33c0.237-0.529,0.255-1.118,0.049-1.66c-0.205-0.543-0.61-0.972-1.14-1.209L17.203,0.68  c-1.064-0.476-2.394,0.031-2.869,1.092L9.139,13.338c-0.219,0.486-0.242,1.022-0.086,1.527c-0.625,0.477-1.102,0.881-1.357,1.201  c-0.044,0.055-0.097,0.114-0.155,0.182c-0.639,0.732-1.97,2.259-1.222,5.621c0.244,1.1,0.552,2.039,0.851,2.947  c0.629,1.916,1.223,3.729,1.223,6.961V32.5h9.482v-0.873c-0.002-0.85-0.002-1.025,0.762-2.594c1.11-2.279,1.32-3.588,1.354-4.143  l1.521-2.145c0.688-0.969,0.521-2.273-0.369-2.908c-0.085-0.06-0.176-0.104-0.268-0.146C21.141,19.479,21.371,19.219,21.517,18.896z   M15.653,2.364c0.116-0.261,0.376-0.429,0.661-0.429c0.102,0,0.202,0.021,0.297,0.064l8.416,3.779  c0.177,0.08,0.313,0.223,0.38,0.404c0.069,0.18,0.063,0.377-0.017,0.554l-5.193,11.567c-0.159,0.352-0.6,0.522-0.959,0.363  l-5.109-2.295c0.029-0.029,0.064-0.064,0.094-0.093c1.059-1.087,0.87-2.363,0.247-3.089c-0.685-0.797-1.782-0.945-2.608-0.355  l-0.725,0.518c-0.212,0.15-0.417,0.295-0.615,0.438L15.653,2.364z M18.272,20.447l-1.127,1.588c-0.29,0.326-0.745,0.455-1.032,0.252  c-0.246-0.176-0.31-0.537-0.191-0.879c0.01-0.014,0.023-0.023,0.034-0.039l1.395-1.963l1.277,0.574l-0.233,0.326  C18.354,20.355,18.309,20.396,18.272,20.447z M11.91,18.51c0.306-0.285,0.704-0.658,1.111-1.049l0.31,0.14l-0.899,1.268  c-0.039,0.056-0.066,0.115-0.1,0.173C12.187,18.84,12.043,18.656,11.91,18.51z M13.611,19.705l1.064-1.5l1.277,0.573l-1.076,1.515  c-0.074,0.105-0.133,0.217-0.188,0.326c-0.291,0.318-0.74,0.441-1.023,0.242C13.352,20.637,13.326,20.107,13.611,19.705z   M17.336,28.398c-0.695,1.43-0.859,1.961-0.896,2.654H9.83c-0.084-3.027-0.694-4.885-1.286-6.688  c-0.287-0.875-0.584-1.779-0.813-2.811c-0.588-2.648,0.344-3.718,0.901-4.356c0.074-0.084,0.14-0.161,0.195-0.229  c0.365-0.457,1.717-1.418,3.148-2.438l0.728-0.518c0.342-0.245,0.636,0.082,0.67,0.12c0.101,0.118,0.388,0.548-0.187,1.138  c-1.013,1.039-2.797,2.674-2.815,2.691l-0.634,0.58l0.681,0.525c0.019,0.015,1.894,1.494,1.554,3.947l1.434,0.199  c0.043-0.309,0.055-0.602,0.051-0.887c0.18,0.051,0.364,0.086,0.557,0.086c0.166,0,0.332-0.027,0.493-0.064  c0.126,0.443,0.382,0.84,0.771,1.115c0.279,0.199,0.607,0.299,0.949,0.338c-0.095,0.727,0.168,1.455,0.768,1.879  c0.316,0.225,0.693,0.344,1.089,0.344c0.074,0,0.146-0.02,0.22-0.027C18.128,26.582,17.839,27.367,17.336,28.398z M20.332,21.908  l-1.65,2.324c-0.218,0.307-0.618,0.438-0.853,0.27c-0.237-0.168-0.25-0.576-0.028-0.891l0.496-0.697  c0.033-0.041,0.074-0.074,0.105-0.119l1.113-1.566c0.148-0.172,0.344-0.287,0.537-0.287c0.096,0,0.181,0.025,0.251,0.076  C20.542,21.186,20.555,21.596,20.332,21.908z"></path></svg>