<svg height='300px' width='300px'  fill="#FF68D7" xmlns="http://www.w3.org/2000/svg" viewBox="0 0 103.9668 102" x="0px" y="0px"><title>Risorsa 11</title><g data-name="Livello 2"><g data-name="Livello 1"><path d="M51.98584,102A52.33137,52.33137,0,0,1,15.5835,87.376a1.00282,1.00282,0,0,1-.66358-.65039A50.34446,50.34446,0,0,1,0,51C0,22.87842,23.3208,0,51.98584,0a52.32886,52.32886,0,0,1,36.3999,14.62451,1.00436,1.00436,0,0,1,.65967.647A50.34683,50.34683,0,0,1,103.9668,51C103.9668,79.12158,80.64844,102,51.98584,102ZM17.38721,86.333A50.34185,50.34185,0,0,0,51.98584,100c27.55957,0,49.981-21.98145,49.981-49A48.339,48.339,0,0,0,88.00928,17.06592L78.41064,26.48a17.18267,17.18267,0,0,1,3.69922,6.57178c.854,3.15625.24707,5.88769-1.75439,7.89892l-6.72022,6.92188A1,1,0,1,1,72.20068,46.479l6.72852-6.93066a5.942,5.942,0,0,0,1.25-5.97412,15.10076,15.10076,0,0,0-3.20068-5.68945L61.98535,42.59033,80.35693,61.05127c2.001,2.00928,2.60791,4.73877,1.75489,7.89307-1.45606,5.3872-6.99561,10.92529-12.34815,12.3457-3.11035.82666-5.8042.20752-7.7876-1.78711L43.39014,60.8291l-15.023,14.73438a15.44608,15.44608,0,0,0,6.34863,3.79394c2.41455.6416,4.38379.21533,5.85547-1.26416l6.90527-6.772A.99994.99994,0,0,1,48.877,72.749l-6.89648,6.76319c-1.97363,1.98584-4.666,2.60351-7.77735,1.77881A17.47965,17.47965,0,0,1,26.937,76.96631ZM51.98584,2C24.42334,2,2,23.98145,2,51A48.333,48.333,0,0,0,15.958,84.93311l9.59668-9.4126a17.18083,17.18083,0,0,1-3.7002-6.57422c-.854-3.15674-.24707-5.88818,1.75489-7.89941l6.72021-6.91749A1,1,0,0,1,31.76416,55.523l-6.729,6.92627a5.9428,5.9428,0,0,0-1.25,5.97461,15.11415,15.11415,0,0,0,3.20166,5.69238L41.979,59.41113l-18.36914-18.456c-1.99218-2.002-2.603-4.71924-1.76611-7.8584A17.8355,17.8355,0,0,1,26.604,25.36084a17.5725,17.5725,0,0,1,7.64551-4.6626,7.63922,7.63922,0,0,1,7.74072,1.79932L60.57471,41.17285,75.59814,26.4375A15.44554,15.44554,0,0,0,69.25,22.644c-2.41406-.64062-4.38525-.21435-5.85693,1.26465l-6.90479,6.772a.99994.99994,0,1,1-1.40039-1.42773l6.896-6.76318c1.97509-1.98584,4.667-2.6045,7.77881-1.77881a17.47546,17.47546,0,0,1,7.26562,4.32373L86.58008,15.666A50.33107,50.33107,0,0,0,51.98584,2Zm-7.168,57.42822L63.394,78.09229c1.47119,1.47949,3.44239,1.90576,5.85645,1.26464,4.65674-1.23584,9.6626-6.24267,10.93066-10.93457a5.93217,5.93217,0,0,0-1.2417-5.96H78.939L60.55762,43.99072,57.82812,46.668l6.30079,6.334a1,1,0,0,1,0,1.41065l-8.74512,8.78906a.97741.97741,0,0,1-.71582.29443,1.00175,1.00175,0,0,1-.71192-.30468L47.63818,56.6626Zm4.248-4.166,5.61865,5.80615L62.00928,53.707l-5.60889-5.63867ZM36.77148,22.35547a8.00513,8.00513,0,0,0-2.01709.27783,15.78374,15.78374,0,0,0-6.73925,4.145,16.05843,16.05843,0,0,0-4.23926,6.8335,5.92794,5.92794,0,0,0,1.252,5.93213l18.3794,18.46679L54.98975,46.65039,49.292,40.92285l-4.06787,4.08838a.9999.9999,0,1,1-1.418-1.41016L48.583,38.7998a1.02843,1.02843,0,0,1,1.418,0l6.4165,6.4502,2.729-2.67676L40.57227,23.90869A5.16432,5.16432,0,0,0,36.77148,22.35547ZM70.78809,71.7002a1.80838,1.80838,0,1,1,1.79834-1.80811A1.8056,1.8056,0,0,1,70.78809,71.7002Zm0-2a.19484.19484,0,0,0-.20166.19189c-.00049.21045.40234.21094.40283,0A.19472.19472,0,0,0,70.78809,69.7002Zm-8.90772,2a1.80838,1.80838,0,1,1,1.79834-1.80811A1.8056,1.8056,0,0,1,61.88037,71.7002Zm0-2a.19485.19485,0,0,0-.20166.19189c-.00049.21045.40234.21094.40283,0A.19472.19472,0,0,0,61.88037,69.7002ZM70.78809,62.752a1.80862,1.80862,0,1,1,1.79834-1.80859A1.806,1.806,0,0,1,70.78809,62.752Zm0-2a.19446.19446,0,0,0-.20166.19141c-.00049.21.40234.21094.40283,0A.19433.19433,0,0,0,70.78809,60.752ZM33.17871,42.8667a1.80838,1.80838,0,1,1,1.79834-1.80859A1.80559,1.80559,0,0,1,33.17871,42.8667Zm0-2a.19446.19446,0,0,0-.20166.19141c0,.21191.40332.21191.40332,0A.19446.19446,0,0,0,33.17871,40.8667ZM42.08643,33.918a1.80838,1.80838,0,1,1,1.79834-1.80811A1.8056,1.8056,0,0,1,42.08643,33.918Zm0-2a.19484.19484,0,0,0-.20166.19189c-.00049.21.40234.21094.40283,0A.19472.19472,0,0,0,42.08643,31.918Zm-8.90772,2a1.80838,1.80838,0,1,1,1.79834-1.80811A1.80518,1.80518,0,0,1,33.17871,33.918Zm0-2a.19485.19485,0,0,0-.20166.19189c0,.21094.40332.21094.40332,0A.19485.19485,0,0,0,33.17871,31.918Z"></path></g></g></svg>