<svg height='300px' width='300px'  fill="#FF68D7" xmlns="http://www.w3.org/2000/svg" data-name="Layer 1" viewBox="0 0 64 64" x="0px" y="0px"><title>Artboard 12</title><path d="M59.4,38.34l-6.78-6.78h0l6.22-6.23a8.58,8.58,0,0,0,0-12.11L50.2,4.59a8.57,8.57,0,0,0-12.11,0L31.71,11,25.3,4.59a8.59,8.59,0,0,0-12.1,0L4.57,13.17a8.52,8.52,0,0,0,0,12.06L11,31.65l-6.41,6.4a8.61,8.61,0,0,0,0,12.11l8.63,8.63a8.58,8.58,0,0,0,12.11,0l6.23-6.23,6.8,6.82a8.69,8.69,0,0,0,12.28,0l8.73-8.75A8.72,8.72,0,0,0,59.4,38.34ZM5.91,23.87a6.61,6.61,0,0,1,0-9.34L14.54,6A6.69,6.69,0,0,1,24,6l6.41,6.37-18,18ZM24,57.44a6.68,6.68,0,0,1-9.41,0L6,48.81A6.68,6.68,0,0,1,6,39.4L39.44,5.94a6.65,6.65,0,0,1,9.41,0l8.62,8.62a6.68,6.68,0,0,1,0,9.41Zm34-8.19L49.28,58a6.74,6.74,0,0,1-9.5,0L33,51.18,51.23,32.92s0,0,0,0L58,39.73A6.75,6.75,0,0,1,58,49.25Z"></path><path d="M32,20.45a1,1,0,0,0-1.35,0L19.84,31.27a.94.94,0,0,0,0,1.35L30.66,43.44a1,1,0,0,0,1.35,0L42.83,32.62a1,1,0,0,0,0-1.35Zm-.68,21L21.86,32l9.47-9.48L40.8,32Z"></path><path d="M37.56,14a1,1,0,0,0-1.35,1.35L48.3,27.39a.94.94,0,0,0,.68.28.92.92,0,0,0,.67-.28.94.94,0,0,0,0-1.35Z"></path><path d="M14,37.5a1,1,0,0,0-1.35,0,.94.94,0,0,0,0,1.35L24.75,50.94a1,1,0,0,0,1.35,0,1,1,0,0,0,0-1.35Z"></path></svg>