<svg height='300px' width='300px'  fill="#1A1A1A" xmlns="http://www.w3.org/2000/svg" data-name="Layer 1 copy" viewBox="0 0 48 48" x="0px" y="0px"><title>Soccer and Football_expand</title><path d="M44.007,0H3.993A3.893,3.893,0,0,0,.1,3.889V22.483a3.893,3.893,0,0,0,3.889,3.889H44.007A3.893,3.893,0,0,0,47.9,22.483V3.889A3.893,3.893,0,0,0,44.007,0ZM46.4,22.483a2.391,2.391,0,0,1-2.389,2.389H3.993A2.391,2.391,0,0,1,1.6,22.483V3.889A2.391,2.391,0,0,1,3.993,1.5H44.007A2.391,2.391,0,0,1,46.4,3.889Z"></path><path d="M21.533,43.749l-2,.2-7.68-16.2a.75.75,0,0,0-.678-.429H7.853a.751.751,0,0,0-.7,1.027l7.616,19.181a.752.752,0,0,0,.7.474.75.75,0,0,0,.7-1.026L8.957,28.818H10.7l7.7,16.249a.731.731,0,0,0,.752.425l2.527-.251a.75.75,0,1,0-.149-1.492Z"></path><path d="M40.386,27.318H37.064a.749.749,0,0,0-.677.429L28.665,44.038l-2.175-.286a.737.737,0,0,0-.841.645.749.749,0,0,0,.646.841l2.716.358a.746.746,0,0,0,.775-.422l7.753-16.356H39.3L32.368,46.982a.751.751,0,0,0,1.4.536l7.316-19.182a.752.752,0,0,0-.7-1.018Z"></path><path d="M25.043,12.436h-2.2a.75.75,0,1,0,0,1.5h2.2a.75.75,0,0,0,0-1.5Z"></path><path d="M26.9,10.727a.75.75,0,1,0-1.018,1.1l1.434,1.323-1.324,1.435a.75.75,0,0,0,1.1,1.018l1.832-1.986a.748.748,0,0,0-.042-1.059Z"></path><path d="M20.688,13.151l1.434-1.323a.75.75,0,1,0-1.018-1.1L19.12,12.559a.748.748,0,0,0-.042,1.059L20.91,15.6a.75.75,0,0,0,1.1-1.018Z"></path><path d="M10.057,10.527c1.8,0,3.053-2.166,3.053-4.109A2.988,2.988,0,0,0,10.057,3.23,2.988,2.988,0,0,0,7,6.418C7,8.361,8.257,10.527,10.057,10.527Zm0-5.8A1.493,1.493,0,0,1,11.61,6.418c0,1.269-.8,2.609-1.553,2.609S8.5,7.687,8.5,6.418A1.493,1.493,0,0,1,10.057,4.73Z"></path><path d="M12.517,10.764H7.6a3.332,3.332,0,0,0-3.329,3.329v4.074a.75.75,0,0,0,1.5,0V14.093A1.83,1.83,0,0,1,7.6,12.264h4.921a1.831,1.831,0,0,1,1.829,1.829v4.074a.75.75,0,0,0,1.5,0V14.093A3.332,3.332,0,0,0,12.517,10.764Z"></path><path d="M12.493,14.387a.75.75,0,0,0-.75.75v5.838H8.32V15.137a.75.75,0,0,0-1.5,0v6.588a.75.75,0,0,0,.75.75h4.923a.75.75,0,0,0,.75-.75V15.137A.75.75,0,0,0,12.493,14.387Z"></path><path d="M37.943,10.527c1.8,0,3.055-2.166,3.055-4.109a3.057,3.057,0,1,0-6.108,0C34.89,8.361,36.144,10.527,37.943,10.527Zm0-5.8A1.493,1.493,0,0,1,39.5,6.418c0,1.269-.8,2.609-1.555,2.609S36.39,7.687,36.39,6.418A1.493,1.493,0,0,1,37.943,4.73Z"></path><path d="M40.4,10.764H35.483a3.332,3.332,0,0,0-3.329,3.329v4.074a.75.75,0,0,0,1.5,0V14.093a1.831,1.831,0,0,1,1.829-1.829H40.4a1.83,1.83,0,0,1,1.829,1.829v4.074a.75.75,0,0,0,1.5,0V14.093A3.332,3.332,0,0,0,40.4,10.764Z"></path><path d="M40.381,14.387a.75.75,0,0,0-.75.75v5.838H36.208V15.137a.75.75,0,0,0-1.5,0v6.588a.75.75,0,0,0,.75.75h4.923a.75.75,0,0,0,.75-.75V15.137A.75.75,0,0,0,40.381,14.387Z"></path><path d="M28.784,36.97c0-3-1.923-5.019-4.784-5.019s-4.784,2.017-4.784,5.019c0,3.13,2.046,6.63,4.784,6.63S28.784,40.1,28.784,36.97ZM24,42.1c-1.657,0-3.284-2.541-3.284-5.13A3.157,3.157,0,0,1,24,33.451a3.157,3.157,0,0,1,3.284,3.519C27.284,39.559,25.657,42.1,24,42.1Z"></path></svg>